<svg xmlns="http://www.w3.org/2000/svg" version="1.0" viewBox="0 0 1547 177">
  <path d="M72 1.6C58.2 3.4 46.7 7.4 36.8 13.9c-11.9 7.9-19.6 16.4-26.1 28.8C2.9 57.6.6 68.1.6 88.5c-.1 15 1.1 22.7 5 34.5 5.9 17.6 21.7 36.1 37.4 43.8 12.6 6.3 22.7 8.5 39 8.6 24.4.1 42.2-6.1 57-20 17.5-16.4 26.3-38.9 26.3-67.4-.1-21.1-4.7-37.8-14.5-52.3C135.6 13.3 115.3 2.6 86 1.6c-5.8-.3-12.1-.2-14 0zm21.7 33.8c10.5 2.2 16 5.2 22.9 12.2 7.1 7.1 9.7 12.9 12.1 26.4 2.8 15.8.1 37.9-6 48.2-6 10.1-16.1 16.8-29.3 19.3-9.4 1.9-13.1 1.8-21.9 0-24.3-5.1-35.5-21.8-35.5-53 0-19.7 4.2-32.9 13.2-41.7 10.7-10.4 28-14.8 44.5-11.4zM962.2 2c-19.6 2.8-33.8 9.7-46.4 22.7-15.7 16.2-23.2 37.2-23.1 64.8.1 26.3 7.5 46.4 23.1 62.8 10.1 10.6 20.9 16.7 36.4 20.8 11.9 3.1 32.6 3.2 45.3 0 24-5.9 42.5-21.7 52.5-44.9 5.4-12.5 7.3-22.9 7.3-39.7 0-28.6-7.2-47.7-24.7-65-10.5-10.4-20.5-16.1-34.1-19.5-9.3-2.3-27.2-3.3-36.3-2zm30.1 35.1c20.3 6.7 29.6 22.9 29.7 51.5 0 19.4-4.1 32.2-13.2 41.3-7.7 7.7-21.5 13.1-33.8 13.1-11.9 0-25.3-5-32.8-12.3-9.3-9-13-19.1-13.8-37.7-1.5-33.2 9.8-51.8 34.6-57.4 8.3-1.9 21-1.3 29.3 1.5zm464.2-35.5c-22.9 3.1-31.7 6.2-41.1 14.7-9.4 8.4-13.7 19.6-13.7 35.2 0 7.9.5 11.2 2.3 15.9 4.1 10.9 13.2 18.5 29.5 24.8 8.9 3.5 15.7 5.4 43 12.2 7.7 1.9 16 4.2 18.5 5.1 10.8 3.8 15.8 10 14.6 18.2-1.3 9.4-6.4 12.7-23 14.5-22.3 2.5-52.9-4.6-78.3-18.3l-9.3-5V154l3.3 2c10.9 6.8 27.1 12.6 46.2 16.6 10.9 2.2 15.5 2.7 28.5 2.7 13.3 0 16.9-.4 25.7-2.6 19.5-4.9 31.5-13.6 38.2-27.7l3.6-7.5v-15c0-14.4-.1-15.2-2.8-20.7-3.6-7.2-11.1-14.1-20.2-18.4-7.4-3.5-27.3-9.5-46.5-13.9-30.5-7.1-38-11.2-38-20.8 0-18.1 35.4-19.3 86.9-2.7 3.5 1.1 6.8 2 7.2 2 .5 0 .9-7.4.9-16.4V15.1l-8-3c-9.9-3.9-16.4-5.6-30.5-8.1-10.6-2-30.8-3.3-37-2.4zM186 61.2c.1 44.2.4 59.1 1.5 65 3 17.1 9.3 27.4 22 36.1 13.4 9.2 28.5 13.1 50.5 13.1 16.2-.1 27-1.8 37.9-6.3 17.7-7.2 27.5-17.8 33-35.4l2.5-8.2.4-60.8.3-60.7H298v54.7c-.1 64.2-.4 67.5-8.5 75.6-3.9 3.8-7.7 5.5-16.7 7.2-10 1.9-15.1 1.9-25.8 0-12-2.1-16.5-5.1-21-14l-3.5-7-.3-58.3-.3-58.2H186v57.2zm176 27.3V173h36v-51h64v51h36l-.2-33.2-.3-33.3-25.7-.3c-24.7-.2-25.8-.3-25.8-2.2 0-1.5.9-2 4.8-2.4 10.9-1.3 17-2.9 22.8-5.7C487.9 89 495 76 495 56.4c0-23.7-12.1-40.5-34.5-47.7C448.2 4.7 439 4 399.9 4H362v84.5zm78.5-50.1C455 41.5 459 46.9 459 63.3c0 7.6-.4 10.1-2.2 13.7-4.5 8.9-17.3 12.3-43.8 11.8l-14.5-.3-.3-25.8L398 37h18.2c11.1.1 20.7.6 24.3 1.4zM621.2 5.2c.3.7 9.9 38.8 21.3 84.5l20.8 83.3h59.4l2.6-12.2c1.5-6.8 4-18.4 5.7-25.8 1.7-7.4 3.5-15.3 3.9-17.5 1-4.7 5.9-27.1 6.6-30 .5-2.1 5.6-24.9 8.1-36.5.8-3.6 1.7-7.3 2-8.3.6-1.8 3.9-2.4 4.8-.8.3.5 2.6 10.1 5.1 21.3 2.5 11.1 4.9 22.1 5.4 24.3.6 2.2 1.7 7.1 2.5 11 .8 3.8 2.9 13.3 4.6 21 1.7 7.7 5.1 22.8 7.4 33.5l4.3 19.5h59.5L866.1 89C877.6 43.1 887 5.2 887 4.7c0-.4-8.2-.7-18.3-.7h-18.3l-2.8 11.7c-1.5 6.5-6.5 27.1-11.1 45.8-4.6 18.7-9.8 40.1-11.5 47.5-6.1 25.7-6.4 26.5-9 26.5-1.8 0-2.5-.7-3.1-3-.4-1.7-1.4-6.2-2.2-10-7.3-32.5-12.2-54.2-14.7-65-.5-2.2-2.3-10.1-3.9-17.5-6.3-28.3-7.2-32.6-7.7-34.3-.5-1.6-2.8-1.7-30.4-1.7h-29.8l-.7 3.2c-1 4.8-9.4 42.6-10.5 47.3-.5 2.2-2.3 10.2-4 17.7-5.3 24.2-9.8 44.3-13 58.6-.9 4-1.6 5.2-3.1 5.2-2.6 0-3.1-1.4-8.3-23-2.5-10.2-7-28.6-10-41-3-12.4-7.5-31.1-10.1-41.5-2.5-10.5-5-20.7-5.6-22.8l-1-3.7h-18.5c-14.5 0-18.5.3-18.2 1.2zm458.5-.5c-.4.3-.7 38.4-.7 84.5V173h36v-51h64v51h36l-.2-33.2-.3-33.3-25.4-.5c-19-.4-25.5-.8-25.8-1.7-.6-1.6 3.8-3.3 8.4-3.3 1.9 0 6.2-.7 9.6-1.6 20.6-5.3 30.6-19 30.7-42 0-21.3-7.6-35.7-23.6-44-15.4-8.1-25-9.4-70.9-9.4-20.4 0-37.5.3-37.8.7zm76.8 33.4c13.6 2.5 18.7 7.9 20.1 21.3 1.3 12.4-2.9 22.1-11 25.6-6.1 2.7-20.3 4.2-36.1 3.8l-14-.3-.3-24.5c-.1-13.4 0-25 .3-25.7.6-1.7 32.4-1.8 41-.2zm85.5 50.4V173h35l.2-33.8.3-33.7 11-.3 11.1-.3 12.4 19.8c6.8 10.9 16.4 26.2 21.4 34l9 14.3h21.3c16.9 0 21.3-.3 20.7-1.2-.4-.7-12.8-19.4-27.6-41.5-14.7-22.1-26.8-40.9-26.8-41.8 0-.8 12.1-19.6 26.8-41.8 14.8-22.1 27.2-40.8 27.6-41.5.6-.9-3.8-1.2-20.7-1.2h-21.3l-8.1 12.7c-4.4 7.1-13.6 21.6-20.3 32.3-6.7 10.7-13 20.3-13.8 21.3-1.4 1.5-3 1.7-12.1 1.5l-10.6-.3-.3-33.8L1277 4h-35v84.5z"/>
</svg>
